<?xml version="1.0" encoding="utf-8"?>
<!-- Generator: Adobe Illustrator 23.0.0, SVG Export Plug-In . SVG Version: 6.00 Build 0)  -->
<svg version="1.1" id="Camada_1" xmlns="http://www.w3.org/2000/svg" xmlns:xlink="http://www.w3.org/1999/xlink" x="0px" y="0px"
	 viewBox="0 0 1920 1080" style="enable-background:new 0 0 1920 1080;" xml:space="preserve">
<style type="text/css">
	.st0{fill:url(#SVGID_1_);}
	.st1{fill:#486CE5;}
	.st2{fill:#ECECF6;}
	.st3{fill:url(#SVGID_2_);}
</style>
<g>
	<linearGradient id="SVGID_1_" gradientUnits="userSpaceOnUse" x1="146.6178" y1="813.6367" x2="344.0102" y2="616.2443">
		<stop  offset="0" style="stop-color:#486CE5"/>
		<stop  offset="0.3474" style="stop-color:#456AE3"/>
		<stop  offset="0.5644" style="stop-color:#3D65DB"/>
		<stop  offset="0.7455" style="stop-color:#2E5BCF"/>
		<stop  offset="0.7765" style="stop-color:#2B59CC"/>
	</linearGradient>
	<path class="st0" d="M208.66,864.87c-2.6,0-5.23-0.39-7.8-1.2c-10.75-3.37-18.12-13.25-18.3-24.51
		c-0.05-3.11-0.93-77.07,20.01-145.72c22.83-74.82,57.87-117.3,59.36-119.07c9.25-11.06,25.71-12.53,36.77-3.29
		c11.06,9.25,12.53,25.71,3.29,36.77c-0.24,0.29-29.94,36.8-49.48,100.82c-4.6,15.08-8.01,30.59-10.54,45.42
		c29.1-32.01,73.1-66.57,74.97-68.04c11.35-8.89,27.76-6.89,36.65,4.46c8.89,11.35,6.89,27.76-4.46,36.65
		c-0.6,0.47-42.92,33.74-68.92,62.48c-19.88,21.97-50.04,63.92-50.35,64.34C224.88,860.95,216.92,864.87,208.66,864.87z"/>
	<path class="st1" d="M325.62,562.04c-6.02,0-12.08-2.07-17-6.31c-10.93-9.4-12.18-25.88-2.78-36.82l11.09-12.9
		c9.4-10.93,25.88-12.18,36.81-2.78c10.93,9.4,12.18,25.88,2.78,36.82l-11.09,12.9C340.27,558.95,332.97,562.04,325.62,562.04z"/>
	<path class="st2" d="M524.35,539.54c0-50.31,29.57-78.74,88.34-78.74c43.4,0,71.82,19.97,82.19,50.31
		c3.07,9.6,0.77,13.83-8.45,17.28l-16.9,5.38c-9.22,3.46-13.44,1.15-16.9-8.07c-6.53-17.28-20.74-25.73-41.86-25.73
		c-28.04,0-41.86,12.67-41.86,37.64v56.84c0,24.2,14.59,37.64,41.86,37.64c21.12,0,35.34-8.83,41.86-26.5
		c3.46-9.22,7.68-10.75,16.9-7.68l17.28,4.99c8.83,3.46,11.52,9.22,8.07,17.28c-13.44,34.18-41.86,51.08-85.65,51.08
		c-56.84,0-84.88-28.42-84.88-78.74V539.54z"/>
	<path class="st2" d="M805.49,460.81c54.92,0,82.19,26.5,82.19,79.12v99.48c0,13.44-3.07,17.28-13.83,21.89
		c-15.36,6.53-38.41,9.99-69.13,9.99c-32.65,0-54.92-4.99-67.22-15.36c-12.29-9.99-18.43-25.73-18.43-46.86
		c0-45.71,24.58-61.84,87.19-61.84c2.69,0,14.98,0.77,36.87,1.92v-10.75c0-24.97-10.75-38.02-38.41-38.02
		c-18.82,0-32.26,6.15-40.33,18.44c-5.76,8.07-7.68,8.83-16.52,5.76l-15.36-6.53c-8.45-3.84-10.75-9.6-6.53-17.28
		C739.82,474.25,766.32,460.81,805.49,460.81z M843.13,585.63c-26.89-1.15-40.71-1.92-41.86-1.92c-27.65,0-36.87,8.07-36.87,24.97
		c0,17.28,8.06,25.73,36.1,25.73c16.51,0,29.19-1.15,38.41-3.07c2.69-1.15,4.22-2.69,4.22-5.38V585.63z"/>
	<path class="st2" d="M979.1,420.72c8.83,0,11.91,2.69,11.91,11.52v34.57h43.79c8.83,0,11.91,2.69,11.91,11.52V496
		c0,8.83-3.07,11.91-11.91,11.91H991v77.2c0,18.05,3.07,29.96,9.22,35.72c5.76,5.76,17.28,8.45,34.18,8.45
		c9.22,0,12.29,2.69,12.29,11.91v17.67c0,9.22-3.07,11.91-12.29,12.29c-32.26,1.15-54.92-4.61-67.98-16.9
		c-13.44-12.29-19.97-34.95-19.97-67.6V507.9h-26.5c-8.83,0-11.52-3.07-11.52-11.91v-17.67c0-8.83,2.69-11.52,11.52-11.52h26.5
		v-34.57c0-8.83,3.07-11.52,11.91-11.52H979.1z"/>
	<path class="st2" d="M1152.7,460.81c54.92,0,82.19,26.5,82.19,79.12v99.48c0,13.44-3.07,17.28-13.83,21.89
		c-15.36,6.53-38.41,9.99-69.13,9.99c-32.65,0-54.92-4.99-67.21-15.36c-12.29-9.99-18.44-25.73-18.44-46.86
		c0-45.71,24.58-61.84,87.19-61.84c2.69,0,14.98,0.77,36.87,1.92v-10.75c0-24.97-10.75-38.02-38.41-38.02
		c-18.82,0-32.26,6.15-40.33,18.44c-5.76,8.07-7.68,8.83-16.51,5.76l-15.36-6.53c-8.45-3.84-10.75-9.6-6.53-17.28
		C1087.02,474.25,1113.52,460.81,1152.7,460.81z M1190.34,585.63c-26.89-1.15-40.71-1.92-41.86-1.92
		c-27.65,0-36.87,8.07-36.87,24.97c0,17.28,8.07,25.73,36.1,25.73c16.51,0,29.19-1.15,38.41-3.07c2.69-1.15,4.22-2.69,4.22-5.38
		V585.63z"/>
	<path class="st2" d="M1321.69,659.38c0,8.83-3.07,11.91-11.91,11.91h-20.74c-9.22,0-11.91-3.07-11.91-11.91v-260.4
		c0-8.83,2.69-11.91,11.91-11.91h20.74c8.83,0,11.91,3.07,11.91,11.91V659.38z"/>
	<path class="st2" d="M1390.83,397.82c18.05,0,23.43,5.76,23.43,23.05v3.46c0,18.05-5.38,23.43-23.43,23.43h-2.69
		c-17.28,0-23.43-5.38-23.43-23.43v-3.46c0-17.28,5.38-23.05,23.43-23.05H1390.83z M1400.05,472.33c8.83,0,11.91,2.69,11.91,11.52
		v175.52c0,8.83-3.07,11.91-11.91,11.91h-21.13c-8.83,0-11.52-3.07-11.52-11.91V483.85c0-8.83,2.69-11.52,11.52-11.52H1400.05z"/>
	<path class="st2" d="M1545.99,466.57c53.77,0,79.89,27.65,79.89,77.2v115.61c0,8.83-3.07,11.91-11.91,11.91h-21.12
		c-8.83,0-11.52-3.07-11.52-11.91V544.92c0-24.96-13.83-37.64-41.86-37.64c-12.29,0-24.58,1.54-36.87,4.99
		c-1.92,0.77-2.69,1.92-2.69,3.84v143.26c0,8.83-2.69,11.91-11.52,11.91h-21.12c-8.83,0-11.91-3.07-11.91-11.91V501.52
		c0-12.29,2.69-16.9,14.98-21.89C1492.22,470.79,1517.18,466.57,1545.99,466.57z"/>
	<path class="st2" d="M1648.17,543.77c0-53.77,31.11-82.96,89.11-82.96c58.38,0,88.72,33.03,88.72,79.5v23.43
		c0,11.14-5.76,16.51-17.28,16.51h-115.99v14.21c0,24.97,15.75,38.41,43.78,38.41c21.51,0,36.49-6.91,45.32-20.36
		c6.14-8.83,10.37-9.6,19.59-4.61l13.44,7.3c8.83,4.22,10.37,10.37,4.61,19.2c-14.98,24.58-42.63,36.87-82.96,36.87
		c-59.92,0-88.34-31.88-88.34-82.19V543.77z M1781.45,537.62c0-24.96-14.98-39.18-44.17-39.18c-28.81,0-44.55,14.21-44.55,39.18
		v8.45h88.72V537.62z"/>
	<path class="st1" d="M392.87,653.57l-1.39,58.71c0,0.08-0.09,0.12-0.15,0.07c-23.88-19.57-56.76-41.73-97.69-57.97
		c-40.65-16.13-92.36-20.94-131.83-21.9c-0.08,0-0.12-0.09-0.07-0.16L399.81,352.6c0.06-0.07,0.17-0.03,0.17,0.06l-1.61,68.27
		c-0.18,7.57,3.32,14.76,9.38,19.3L430.17,457c8.06,6.03,19.56,0.43,19.8-9.63l3.95-167.35c0.26-11.05-6.47-21.07-16.8-25.01
		c-10.33-3.94-22.02-0.95-29.18,7.47L84.22,642.84c-6.84,8.04-8.16,19.41-3.36,28.81c4.81,9.4,14.79,14.99,25.33,14.14
		c1.04-0.08,104.82-8.03,168.18,17.12c76.24,30.25,120.84,85.74,121.29,86.3c5.04,6.39,12.65,9.94,20.5,9.94
		c3.93,0,7.93-0.89,11.68-2.76c8.82-4.4,14.2-13.63,14.43-23.48l2.19-92.84c0.18-7.61-3.33-14.83-9.43-19.39l-22.37-16.73
		C404.61,637.91,393.11,643.51,392.87,653.57z"/>
	<linearGradient id="SVGID_2_" gradientUnits="userSpaceOnUse" x1="112.5026" y1="658.9306" x2="409.3185" y2="738.4622">
		<stop  offset="0" style="stop-color:#486CE5"/>
		<stop  offset="0.2191" style="stop-color:#466BE3"/>
		<stop  offset="0.298" style="stop-color:#3F66DE"/>
		<stop  offset="0.3541" style="stop-color:#345FD3"/>
		<stop  offset="0.38" style="stop-color:#2B59CC"/>
		<stop  offset="0.4047" style="stop-color:#2E5BCF"/>
		<stop  offset="0.5493" style="stop-color:#3D65DB"/>
		<stop  offset="0.7226" style="stop-color:#456AE3"/>
		<stop  offset="1" style="stop-color:#486CE5"/>
	</linearGradient>
	<path class="st3" d="M106.19,685.78c1.04-0.08,104.82-8.03,168.18,17.12c76.24,30.25,120.84,85.74,121.29,86.3
		c5.04,6.39-4.33-76.85-4.33-76.85c-23.88-19.57-56.76-41.73-97.69-57.97c-40.65-16.13-92.36-20.94-131.83-21.9L106.19,685.78z"/>
	<path class="st1" d="M241.98,754.09c2.53-14.83,5.94-30.34,10.54-45.42c19.53-64.02,49.23-100.52,49.48-100.82
		c9.25-11.06,7.78-27.53-3.29-36.77c-11.06-9.24-27.53-7.78-36.77,3.29c-1.48,1.77-36.53,44.25-59.36,119.07
		c-20.95,68.65-20.06,142.61-20.01,145.72c0.17,11.26,7.55,21.14,18.3,24.51c2.57,0.81,5.2,1.2,7.8,1.2
		c8.25,0,16.21-3.92,21.21-10.88L241.98,754.09z"/>
</g>
</svg>
